{
  "accessors": [
    {
      "bufferView": 2,
      "componentType": 5126,
      "count": 33,
      "max": [
        0.17469638586044312,
        0.8161640763282776,
        1.9242651462554932
      ],
      "min": [
        0.04828238859772682,
        -0.8092645406723022,
        -1.9242651462554932
      ],
      "type": "VEC3"
    },
    {
      "bufferView": 2,
      "byteOffset": 396,
      "componentType": 5126,
      "count": 33,
      "max": [
        1.0,
        0.001900056260637939,
        0.11000345647335052
      ],
      "min": [
        0.9936970472335815,
        0.0,
        -0.11209966242313385
      ],
      "type": "VEC3"
    },
    {
      "bufferView": 3,
      "componentType": 5126,
      "count": 33,
      "max": [
        0.11000347882509232,
        0.0015602860366925597,
        -0.9936964511871338,
        -1.0
      ],
      "min": [
        -0.11209959536790848,
        -1.2916666491946671e-05,
        -1.0,
        -1.0
      ],
      "type": "VEC4"
    },
    {
      "bufferView": 1,
      "componentType": 5126,
      "count": 33,
      "max": [
        1.0,
        0.0
      ],
      "min": [
        0.0,
        -1.0
      ],
      "type": "VEC2"
    },
    {
      "bufferView": 1,
      "byteOffset": 264,
      "componentType": 5126,
      "count": 33,
      "max": [
        1.0,
        0.0
      ],
      "min": [
        0.0,
        -1.0
      ],
      "type": "VEC2"
    },
    {
      "bufferView": 1,
      "byteOffset": 528,
      "componentType": 5126,
      "count": 33,
      "max": [
        1.0,
        0.0
      ],
      "min": [
        0.0,
        -1.0
      ],
      "type": "VEC2"
    },
    {
      "bufferView": 1,
      "byteOffset": 792,
      "componentType": 5126,
      "count": 33,
      "max": [
        1.0,
        0.0
      ],
      "min": [
        0.0,
        -1.0
      ],
      "type": "VEC2"
    },
    {
      "bufferView": 0,
      "componentType": 5125,
      "count": 120,
      "type": "SCALAR"
    },
    {
      "bufferView": 2,
      "byteOffset": 792,
      "componentType": 5126,
      "count": 1484,
      "max": [
        0.21982453763484955,
        0.8469817638397217,
        2.002912998199463
      ],
      "min": [
        -0.3375537097454071,
        -0.8400826454162598,
        -2.002912998199463
      ],
      "type": "VEC3"
    },
    {
      "bufferView": 2,
      "byteOffset": 18600,
      "componentType": 5126,
      "count": 1484,
      "max": [
        1.0,
        1.0,
        1.0
      ],
      "min": [
        -0.9999924898147583,
        -1.0,
        -1.0
      ],
      "type": "VEC3"
    },
    {
      "bufferView": 3,
      "byteOffset": 528,
      "componentType": 5126,
      "count": 1484,
      "max": [
        1.0,
        1.0,
        1.0,
        1.0
      ],
      "min": [
        -0.9997687339782715,
        -1.0,
        -1.0,
        -1.0
      ],
      "type": "VEC4"
    },
    {
      "bufferView": 1,
      "byteOffset": 1056,
      "componentType": 5126,
      "count": 1484,
      "max": [
        0.9868159890174866,
        -0.009765982627868652
      ],
      "min": [
        0.010894999839365482,
        -0.983428955078125
      ],
      "type": "VEC2"
    },
    {
      "bufferView": 1,
      "byteOffset": 12928,
      "componentType": 5126,
      "count": 1484,
      "max": [
        0.9868159890174866,
        -0.009765982627868652
      ],
      "min": [
        0.010894999839365482,
        -0.983428955078125
      ],
      "type": "VEC2"
    },
    {
      "bufferView": 1,
      "byteOffset": 24800,
      "componentType": 5126,
      "count": 1484,
      "max": [
        0.9868159890174866,
        -0.009765982627868652
      ],
      "min": [
        0.010894999839365482,
        -0.983428955078125
      ],
      "type": "VEC2"
    },
    {
      "bufferView": 1,
      "byteOffset": 36672,
      "componentType": 5126,
      "count": 1484,
      "max": [
        0.9868159890174866,
        -0.009765982627868652
      ],
      "min": [
        0.010894999839365482,
        -0.983428955078125
      ],
      "type": "VEC2"
    },
    {
      "bufferView": 0,
      "byteOffset": 480,
      "componentType": 5125,
      "count": 4848,
      "type": "SCALAR"
    }
  ],
  "asset": {
    "extras": {
      "author": "Dreadler (https://sketchfab.com/Dreadler)",
      "license": "CC-BY-4.0 (http://creativecommons.org/licenses/by/4.0/)",
      "source": "https://sketchfab.com/3d-models/control-room-monitor-75d49d961e06427a9da38b81d341b39f",
      "title": "Control Room Monitor"
    },
    "generator": "Sketchfab-16.95.0",
    "version": "2.0"
  },
  "bufferViews": [
    {
      "buffer": 0,
      "byteLength": 19872,
      "name": "floatBufferViews",
      "target": 34963
    },
    {
      "buffer": 0,
      "byteLength": 48544,
      "byteOffset": 19872,
      "byteStride": 8,
      "name": "floatBufferViews",
      "target": 34962
    },
    {
      "buffer": 0,
      "byteLength": 36408,
      "byteOffset": 68416,
      "byteStride": 12,
      "name": "floatBufferViews",
      "target": 34962
    },
    {
      "buffer": 0,
      "byteLength": 24272,
      "byteOffset": 104824,
      "byteStride": 16,
      "name": "floatBufferViews",
      "target": 34962
    }
  ],
  "buffers": [
    {
      "byteLength": 129096,
      "uri": "scene.bin"
    }
  ],
  "extensionsUsed": [
    "KHR_materials_specular"
  ],
  "images": [
    {
      "uri": "textures/fin_monitor_silo_01_col_baseColor.png"
    },
    {
      "uri": "textures/fin_monitor_silo_01_col_metallicRoughness.png"
    },
    {
      "uri": "textures/fin_monitor_silo_01_col_normal.png"
    },
    {
      "uri": "textures/mtl_fin_monitor_control_room_col_baseColor.png"
    },
    {
      "uri": "textures/mtl_fin_monitor_control_room_col_metallicRoughness.png"
    },
    {
      "uri": "textures/mtl_fin_monitor_control_room_col_normal.png"
    }
  ],
  "materials": [
    {
      "doubleSided": true,
      "extensions": {
        "KHR_materials_specular": {
          "specularColorFactor": [
            1.0,
            1.0,
            1.0
          ],
          "specularFactor": 0.0625
        }
      },
      "name": "fin_monitor_silo_01_col",
      "normalTexture": {
        "index": 2
      },
      "pbrMetallicRoughness": {
        "baseColorTexture": {
          "index": 0
        },
        "metallicFactor": 0.06139141275808005,
        "metallicRoughnessTexture": {
          "index": 1
        },
        "roughnessFactor": 0.08657763337677955
      }
    },
    {
      "doubleSided": true,
      "extensions": {
        "KHR_materials_specular": {
          "specularColorFactor": [
            1.0,
            1.0,
            1.0
          ],
          "specularFactor": 0.125
        }
      },
      "name": "mtl_fin_monitor_control_room_col",
      "normalTexture": {
        "index": 5
      },
      "pbrMetallicRoughness": {
        "baseColorTexture": {
          "index": 3
        },
        "metallicRoughnessTexture": {
          "index": 4
        }
      }
    }
  ],
  "meshes": [
    {
      "name": "Object_0",
      "primitives": [
        {
          "attributes": {
            "NORMAL": 1,
            "POSITION": 0,
            "TANGENT": 2,
            "TEXCOORD_0": 3,
            "TEXCOORD_1": 4,
            "TEXCOORD_2": 5,
            "TEXCOORD_3": 6
          },
          "indices": 7,
          "material": 0,
          "mode": 4
        }
      ]
    },
    {
      "name": "Object_1",
      "primitives": [
        {
          "attributes": {
            "NORMAL": 9,
            "POSITION": 8,
            "TANGENT": 10,
            "TEXCOORD_0": 11,
            "TEXCOORD_1": 12,
            "TEXCOORD_2": 13,
            "TEXCOORD_3": 14
          },
          "indices": 15,
          "material": 1,
          "mode": 4
        }
      ]
    }
  ],
  "nodes": [
    {
      "children": [
        1
      ],
      "matrix": [
        1.0,
        0.0,
        0.0,
        0.0,
        0.0,
        2.220446049250313e-16,
        -1.0,
        0.0,
        0.0,
        1.0,
        2.220446049250313e-16,
        0.0,
        0.0,
        0.0,
        0.0,
        1.0
      ],
      "name": "Sketchfab_model"
    },
    {
      "children": [
        2
      ],
      "name": "root"
    },
    {
      "children": [
        3
      ],
      "matrix": [
        1.0,
        0.0,
        0.0,
        0.0,
        0.0,
        2.220446049250313e-16,
        1.0,
        0.0,
        0.0,
        -1.0,
        2.220446049250313e-16,
        0.0,
        0.0,
        0.0,
        0.0,
        1.0
      ],
      "name": "GLTF_SceneRootNode"
    },
    {
      "children": [
        4,
        5
      ],
      "name": "fin_monitor_control_room_01.smd_0"
    },
    {
      "mesh": 0,
      "name": "Object_4"
    },
    {
      "mesh": 1,
      "name": "Object_5"
    }
  ],
  "samplers": [
    {
      "magFilter": 9729,
      "minFilter": 9987,
      "wrapS": 10497,
      "wrapT": 10497
    }
  ],
  "scene": 0,
  "scenes": [
    {
      "name": "Sketchfab_Scene",
      "nodes": [
        0
      ]
    }
  ],
  "textures": [
    {
      "sampler": 0,
      "source": 0
    },
    {
      "sampler": 0,
      "source": 1
    },
    {
      "sampler": 0,
      "source": 2
    },
    {
      "sampler": 0,
      "source": 3
    },
    {
      "sampler": 0,
      "source": 4
    },
    {
      "sampler": 0,
      "source": 5
    }
  ]
}
